<svg width="512" height="512" viewBox="0 0 512 512" xmlns="http://www.w3.org/2000/svg">
  <defs>
    <linearGradient id="bg" x1="0%" y1="0%" x2="100%" y2="100%">
      <stop offset="0%" stop-color="#7C6CF0"/>
      <stop offset="100%" stop-color="#5B4FE0"/>
    </linearGradient>
  </defs>

  <!-- Background -->
  <rect width="512" height="512" rx="112" fill="url(#bg)"/>

  <!-- Main chat bubble -->
  <path d="M256 96
           c-97.2 0-176 71.8-176 160
           c0 46.6 22 88.5 57.3 117.8
           c-2.8 22.6-10.4 45-24.3 65.9
           c-3.6 5.4 1.1 12.6 7.4 11.2
           c33.4-7.5 62-22.6 84.3-40.2
           c16.5 4.1 33.9 6.3 51.3 6.3
           c97.2 0 176-71.8 176-160
           s-78.8-161-176-161z"
        fill="#FFFFFF"/>

  <!-- Small reply bubble accent -->
  <circle cx="366" cy="366" r="62" fill="#5B4FE0"/>
  <circle cx="366" cy="366" r="62" fill="none" stroke="#FFFFFF" stroke-width="8"/>
  <path d="M348 348 l36 36 M384 348 l-36 36" stroke="#FFFFFF" stroke-width="10" stroke-linecap="round"/>

  <!-- Dots inside main bubble to suggest "chat" -->
  <circle cx="200" cy="248" r="16" fill="#5B4FE0"/>
  <circle cx="256" cy="248" r="16" fill="#5B4FE0"/>
  <circle cx="312" cy="248" r="16" fill="#5B4FE0"/>
</svg>